<?xml version="1.0" encoding="UTF-8"?>
<svg width="269" height="252" viewBox="0 0 269 252" fill="none" xmlns="http://www.w3.org/2000/svg" role="img" aria-labelledby="title desc" color="#000000">
  <title id="title">Hand holding tasbih icon</title>
  <desc id="desc">Vectorized hand holding tasbih icon with transparent background.</desc>
  <path d="M 137.88 70 L 137.12 70 L 136.44 70.12 L 135.81 70.38 L 135.25 70.75 L 134.75 71.25 L 134.31 72.38 L 133.94 74.12 L 133.62 76.5 L 133.38 79.5 L 133 82.38 L 132.5 85.12 L 131.88 87.75 L 131.12 90.25 L 130.38 92.5 L 129.62 94.5 L 128.88 96.25 L 128.12 97.75 L 127 99.62 L 125.5 101.88 L 123.62 104.5 L 121.38 107.5 L 119.69 109.94 L 118.56 111.81 L 118 113.12 L 118 113.88 L 118.12 114.56 L 118.38 115.19 L 118.75 115.75 L 119.25 116.25 L 119.81 116.62 L 120.44 116.88 L 121.12 117 L 121.88 117 L 122.81 116.62 L 123.94 115.88 L 125.25 114.75 L 126.75 113.25 L 128.38 111.25 L 130.12 108.75 L 132 105.75 L 134 102.25 L 135.69 99 L 137.06 96 L 138.12 93.25 L 138.88 90.75 L 139.44 88.62 L 139.81 86.88 L 140 85.5 L 140 84.5 L 140.06 83.69 L 140.19 83.06 L 140.38 82.62 L 140.62 82.38 L 140.81 81.56 L 140.94 80.19 L 141 78.25 L 141 75.75 L 140.88 73.75 L 140.62 72.25 L 140.25 71.25 L 139.75 70.75 L 139.19 70.38 L 138.56 70.12 Z
    M 69.38 31.88 L 67.62 33.12 L 65.94 34.5 L 64.31 36 L 62.75 37.62 L 61.25 39.38 L 58.69 43.62 L 55.06 50.38 L 50.38 59.62 L 44.62 71.38 L 40.31 80.31 L 37.44 86.44 L 36 89.75 L 36 90.25 L 35.19 92.19 L 33.56 95.56 L 31.12 100.38 L 27.88 106.62 L 25.44 111.44 L 23.81 114.81 L 23 116.75 L 23 117.25 L 22.19 119.19 L 20.56 122.56 L 18.12 127.38 L 14.88 133.62 L 12.44 138.56 L 10.81 142.19 L 10 144.5 L 10 145.5 L 10.12 146.38 L 10.38 147.12 L 10.75 147.75 L 11.25 148.25 L 11.81 148.62 L 12.44 148.88 L 13.12 149 L 13.88 149 L 14.56 148.88 L 15.19 148.62 L 15.75 148.25 L 16.25 147.75 L 16.94 146.75 L 17.81 145.25 L 18.88 143.25 L 20.12 140.75 L 22.19 139.62 L 25.06 139.88 L 28.75 141.5 L 33.25 144.5 L 36.81 146.75 L 39.44 148.25 L 41.12 149 L 41.88 149 L 42.56 148.88 L 43.19 148.62 L 43.75 148.25 L 44.25 147.75 L 44.62 147.19 L 44.88 146.56 L 45 145.88 L 45 145.12 L 44.75 144.31 L 44.25 143.44 L 43.5 142.5 L 42.5 141.5 L 40.88 140.19 L 38.62 138.56 L 35.75 136.62 L 32.25 134.38 L 29.56 132.5 L 27.69 131 L 26.62 129.88 L 26.38 129.12 L 26.31 128.31 L 26.44 127.44 L 26.75 126.5 L 27.25 125.5 L 28.12 125.06 L 29.38 125.19 L 31 125.88 L 33 127.12 L 34.69 128.06 L 36.06 128.69 L 37.12 129 L 37.88 129 L 38.56 128.88 L 39.19 128.62 L 39.75 128.25 L 40.25 127.75 L 40.62 127.19 L 40.88 126.56 L 41 125.88 L 41 125.12 L 40.5 124.19 L 39.5 123.06 L 38 121.75 L 36 120.25 L 34.44 118.94 L 33.31 117.81 L 32.62 116.88 L 32.38 116.12 L 34.25 111.31 L 38.25 102.44 L 44.38 89.5 L 52.62 72.5 L 59.19 59.31 L 64.06 49.94 L 67.25 44.38 L 68.75 42.62 L 70.5 40.94 L 72.5 39.31 L 74.75 37.75 L 77.25 36.25 L 79.25 35.12 L 80.75 34.38 L 81.75 34 L 82.25 34 L 83.31 33.62 L 84.94 32.88 L 87.12 31.75 L 89.88 30.25 L 92.06 29.12 L 93.69 28.38 L 94.75 28 L 95.25 28 L 96.94 27.38 L 99.81 26.12 L 103.88 24.25 L 109.12 21.75 L 113.31 19.88 L 116.44 18.62 L 118.5 18 L 119.5 18 L 120.31 17.94 L 120.94 17.81 L 121.38 17.62 L 121.62 17.38 L 124.94 17.19 L 131.31 17.06 L 140.75 17 L 153.25 17 L 162.75 17.19 L 169.25 17.56 L 172.75 18.12 L 173.25 18.88 L 174 19.75 L 175 20.75 L 176.25 21.88 L 177.75 23.12 L 179.25 24.25 L 180.75 25.25 L 182.25 26.12 L 183.75 26.88 L 185.38 27.5 L 187.12 28 L 189 28.38 L 191 28.62 L 192.56 28.88 L 193.69 29.12 L 194.38 29.38 L 194.62 29.62 L 194.56 30.06 L 194.19 30.69 L 193.5 31.5 L 192.5 32.5 L 191.38 33.44 L 190.12 34.31 L 188.75 35.12 L 187.25 35.88 L 185.88 36.44 L 184.62 36.81 L 183.5 37 L 182.5 37 L 181.69 37.06 L 181.06 37.19 L 180.62 37.38 L 180.38 37.62 L 178.06 37.81 L 173.69 37.94 L 167.25 38 L 158.75 38 L 151.94 38.12 L 146.81 38.38 L 143.38 38.75 L 141.62 39.25 L 139.94 39.81 L 138.31 40.44 L 136.75 41.12 L 135.25 41.88 L 133.56 42.94 L 131.69 44.31 L 129.62 46 L 127.38 48 L 125.5 49.75 L 124 51.25 L 122.88 52.5 L 122.12 53.5 L 121.25 55 L 120.25 57 L 119.12 59.5 L 117.88 62.5 L 116.44 65.31 L 114.81 67.94 L 113 70.38 L 111 72.62 L 108.88 74.62 L 106.62 76.38 L 104.25 77.88 L 101.75 79.12 L 99.62 80.06 L 97.88 80.69 L 96.5 81 L 95.5 81 L 94.69 81.06 L 94.06 81.19 L 93.62 81.38 L 93.38 81.62 L 92.38 81.81 L 90.62 81.94 L 88.12 82 L 84.88 82 L 82.31 82.12 L 80.44 82.38 L 79.25 82.75 L 78.75 83.25 L 78.38 83.81 L 78.12 84.44 L 78 85.12 L 78 85.88 L 78.12 86.56 L 78.38 87.19 L 78.75 87.75 L 79.25 88.25 L 80.69 88.62 L 83.06 88.88 L 86.38 89 L 90.62 89 L 94.25 88.88 L 97.25 88.62 L 99.62 88.25 L 101.38 87.75 L 103.06 87.19 L 104.69 86.56 L 106.25 85.88 L 107.75 85.12 L 109.44 84.06 L 111.31 82.69 L 113.38 81 L 115.62 79 L 117.5 77.25 L 119 75.75 L 120.12 74.5 L 120.88 73.5 L 121.75 72 L 122.75 70 L 123.88 67.5 L 125.12 64.5 L 126.56 61.69 L 128.19 59.06 L 130 56.62 L 132 54.38 L 133.94 52.44 L 135.81 50.81 L 137.62 49.5 L 139.38 48.5 L 141.12 47.69 L 142.88 47.06 L 144.62 46.62 L 146.38 46.38 L 147.75 46.12 L 148.75 45.88 L 149.38 45.62 L 149.62 45.38 L 150.62 45.19 L 152.38 45.06 L 154.88 45 L 158.12 45 L 160.62 45.06 L 162.38 45.19 L 163.38 45.38 L 163.62 45.62 L 163.69 46 L 163.56 46.5 L 163.25 47.12 L 162.75 47.88 L 162.38 49 L 162.12 50.5 L 162 52.38 L 162 54.62 L 162.12 56.56 L 162.38 58.19 L 162.75 59.5 L 163.25 60.5 L 163.12 61.69 L 162.38 63.06 L 161 64.62 L 159 66.38 L 157.38 67.94 L 156.12 69.31 L 155.25 70.5 L 154.75 71.5 L 154.38 72.81 L 154.12 74.44 L 154 76.38 L 154 78.62 L 154.12 80.56 L 154.38 82.19 L 154.75 83.5 L 155.25 84.5 L 155.12 85.69 L 154.38 87.06 L 153 88.62 L 151 90.38 L 149.38 91.94 L 148.12 93.31 L 147.25 94.5 L 146.75 95.5 L 146.38 96.81 L 146.12 98.44 L 146 100.38 L 146 102.62 L 146.12 104.56 L 146.38 106.19 L 146.75 107.5 L 147.25 108.5 L 147.12 109.69 L 146.38 111.06 L 145 112.62 L 143 114.38 L 141.38 115.94 L 140.12 117.31 L 139.25 118.5 L 138.75 119.5 L 138.38 120.81 L 138.12 122.44 L 138 124.38 L 138 126.62 L 138.12 128.5 L 138.38 130 L 138.75 131.12 L 139.25 131.88 L 139.56 132.5 L 139.69 133 L 139.62 133.38 L 139.38 133.62 L 137.69 133.81 L 134.56 133.94 L 130 134 L 124 134 L 119 134.19 L 115 134.56 L 112 135.12 L 110 135.88 L 108.06 136.75 L 106.19 137.75 L 104.38 138.88 L 102.62 140.12 L 100.12 140.12 L 96.88 138.88 L 92.88 136.38 L 88.12 132.62 L 84.25 129.75 L 81.25 127.75 L 79.12 126.62 L 77.88 126.38 L 76.81 126.31 L 75.94 126.44 L 75.25 126.75 L 74.75 127.25 L 74.38 127.81 L 74.12 128.44 L 74 129.12 L 74 129.88 L 74.25 130.69 L 74.75 131.56 L 75.5 132.5 L 76.5 133.5 L 78.06 134.81 L 80.19 136.44 L 82.88 138.38 L 86.12 140.62 L 88.81 142.62 L 90.94 144.38 L 92.5 145.88 L 93.5 147.12 L 94 148.25 L 94 149.25 L 93.5 150.12 L 92.5 150.88 L 91.25 151.06 L 89.75 150.69 L 88 149.75 L 86 148.25 L 84.31 147.12 L 82.94 146.38 L 81.88 146 L 81.12 146 L 80.44 146.12 L 79.81 146.38 L 79.25 146.75 L 78.75 147.25 L 78.38 147.81 L 78.12 148.44 L 78 149.12 L 78 149.88 L 78.56 150.94 L 79.69 152.31 L 81.38 154 L 83.62 156 L 84.06 158.94 L 82.69 162.81 L 79.5 167.62 L 74.5 173.38 L 70.69 178 L 68.06 181.5 L 66.62 183.88 L 66.38 185.12 L 66.31 186.19 L 66.44 187.06 L 66.75 187.75 L 67.25 188.25 L 67.81 188.62 L 68.44 188.88 L 69.12 189 L 69.88 189 L 70.81 188.62 L 71.94 187.88 L 73.25 186.75 L 74.75 185.25 L 77.5 182.12 L 81.5 177.38 L 86.75 171 L 93.25 163 L 98.69 156.5 L 103.06 151.5 L 106.38 148 L 108.62 146 L 110.75 144.38 L 112.75 143.12 L 114.62 142.25 L 116.38 141.75 L 119.56 141.38 L 124.19 141.12 L 130.25 141 L 137.75 141 L 143.44 141.06 L 147.31 141.19 L 149.38 141.38 L 149.62 141.62 L 149.81 142.31 L 149.94 143.44 L 150 145 L 150 147 L 150.25 148.94 L 150.75 150.81 L 151.5 152.62 L 152.5 154.38 L 153.5 155.88 L 154.5 157.12 L 155.5 158.12 L 156.5 158.88 L 157.06 159.94 L 157.19 161.31 L 156.88 163 L 156.12 165 L 155.62 166.88 L 155.38 168.62 L 155.38 170.25 L 155.62 171.75 L 155.94 173.12 L 156.31 174.38 L 156.75 175.5 L 157.25 176.5 L 157.94 177.56 L 158.81 178.69 L 159.88 179.88 L 161.12 181.12 L 162.38 182.19 L 163.62 183.06 L 164.88 183.75 L 166.12 184.25 L 167.44 184.62 L 168.81 184.88 L 170.25 185 L 171.75 185 L 173.12 184.88 L 174.38 184.62 L 175.5 184.25 L 176.5 183.75 L 177.69 183.88 L 179.06 184.62 L 180.62 186 L 182.38 188 L 184 189.69 L 185.5 191.06 L 186.88 192.12 L 188.12 192.88 L 189.06 193.94 L 189.69 195.31 L 190 197 L 190 199 L 189.75 200.62 L 189.25 201.88 L 188.5 202.75 L 187.5 203.25 L 186.44 204 L 185.31 205 L 184.12 206.25 L 182.88 207.75 L 181.81 210.12 L 180.94 213.38 L 180.25 217.5 L 179.75 222.5 L 179.31 226.31 L 178.94 228.94 L 178.62 230.38 L 178.38 230.62 L 178.19 231.31 L 178.06 232.44 L 178 234 L 178 236 L 178.12 237.62 L 178.38 238.88 L 178.75 239.75 L 179.25 240.25 L 181.31 240.62 L 184.94 240.88 L 190.12 241 L 196.88 241 L 202.06 240.88 L 205.69 240.62 L 207.75 240.25 L 208.25 239.75 L 208.5 237.88 L 208.5 234.62 L 208.25 230 L 207.75 224 L 207.25 219.06 L 206.75 215.19 L 206.25 212.38 L 205.75 210.62 L 205.06 209 L 204.19 207.5 L 203.12 206.12 L 201.88 204.88 L 200.75 203.88 L 199.75 203.12 L 198.88 202.62 L 198.12 202.38 L 197.56 201.69 L 197.19 200.56 L 197 199 L 197 197 L 197.31 195.31 L 197.94 193.94 L 198.88 192.88 L 200.12 192.12 L 201.31 191.31 L 202.44 190.44 L 203.5 189.5 L 204.5 188.5 L 205.56 187.94 L 206.69 187.81 L 207.88 188.12 L 209.12 188.88 L 210.25 189.44 L 211.25 189.81 L 212.12 190 L 212.88 190 L 213.5 190.06 L 214 190.19 L 214.38 190.38 L 214.62 190.62 L 215.06 190.81 L 215.69 190.94 L 216.5 191 L 217.5 191 L 218.69 190.81 L 220.06 190.44 L 221.62 189.88 L 223.38 189.12 L 224.94 188.31 L 226.31 187.44 L 227.5 186.5 L 228.5 185.5 L 229.44 184.19 L 230.31 182.56 L 231.12 180.62 L 231.88 178.38 L 232.81 176.69 L 233.94 175.56 L 235.25 175 L 236.75 175 L 238.31 174.75 L 239.94 174.25 L 241.62 173.5 L 243.38 172.5 L 244.94 171.31 L 246.31 169.94 L 247.5 168.38 L 248.5 166.62 L 249.25 165.12 L 249.75 163.88 L 250 162.88 L 250 162.12 L 250.06 161.5 L 250.19 161 L 250.38 160.62 L 250.62 160.38 L 250.75 159.81 L 250.75 158.94 L 250.62 157.75 L 250.38 156.25 L 250 154.75 L 249.5 153.25 L 248.88 151.75 L 248.12 150.25 L 247.88 148.69 L 248.12 147.06 L 248.88 145.38 L 250.12 143.62 L 251.12 141.81 L 251.88 139.94 L 252.38 138 L 252.62 136 L 252.56 134 L 252.19 132 L 251.5 130 L 250.5 128 L 250 126.25 L 250 124.75 L 250.5 123.5 L 251.5 122.5 L 252.44 121.19 L 253.31 119.56 L 254.12 117.62 L 254.88 115.38 L 255.38 113.31 L 255.62 111.44 L 255.62 109.75 L 255.38 108.25 L 254.88 106.69 L 254.12 105.06 L 253.12 103.38 L 251.88 101.62 L 251.19 100 L 251.06 98.5 L 251.5 97.12 L 252.5 95.88 L 253.25 94.75 L 253.75 93.75 L 254 92.88 L 254 92.12 L 254.06 91.5 L 254.19 91 L 254.38 90.62 L 254.62 90.38 L 254.81 89.88 L 254.94 89.12 L 255 88.12 L 255 86.88 L 254.75 85.44 L 254.25 83.81 L 253.5 82 L 252.5 80 L 252 78.25 L 252 76.75 L 252.5 75.5 L 253.5 74.5 L 254.38 73.5 L 255.12 72.5 L 255.75 71.5 L 256.25 70.5 L 256.69 69.31 L 257.06 67.94 L 257.38 66.38 L 257.62 64.62 L 257.75 63.25 L 257.75 62.25 L 257.62 61.62 L 257.38 61.38 L 257.19 61 L 257.06 60.5 L 257 59.88 L 257 59.12 L 256.81 58.25 L 256.44 57.25 L 255.88 56.12 L 255.12 54.88 L 254.06 53.62 L 252.69 52.38 L 251 51.12 L 249 49.88 L 247.56 48.38 L 246.69 46.62 L 246.38 44.62 L 246.62 42.38 L 246.69 40.38 L 246.56 38.62 L 246.25 37.12 L 245.75 35.88 L 245.06 34.62 L 244.19 33.38 L 243.12 32.12 L 241.88 30.88 L 240.69 29.81 L 239.56 28.94 L 238.5 28.25 L 237.5 27.75 L 236.12 27.38 L 234.38 27.12 L 232.25 27 L 229.75 27 L 227.69 26.69 L 226.06 26.06 L 224.88 25.12 L 224.12 23.88 L 223.31 22.69 L 222.44 21.56 L 221.5 20.5 L 220.5 19.5 L 219.19 18.56 L 217.56 17.69 L 215.62 16.88 L 213.38 16.12 L 211.5 15.25 L 210 14.25 L 208.88 13.12 L 208.12 11.88 L 202 10.94 L 190.5 10.31 L 173.62 10 L 151.38 10 L 134.25 10.12 L 122.25 10.38 L 115.38 10.75 L 113.62 11.25 L 109.88 12.75 L 104.12 15.25 L 96.38 18.75 L 86.62 23.25 L 78.88 26.94 L 73.12 29.81 Z
    M 194.12 209.38 L 194.88 209.62 L 195.62 210 L 196.38 210.5 L 197.12 211.12 L 197.88 211.88 L 198.44 212.88 L 198.81 214.12 L 199 215.62 L 199 217.38 L 199.06 218.75 L 199.19 219.75 L 199.38 220.38 L 199.62 220.62 L 199.81 221.25 L 199.94 222.25 L 200 223.62 L 200 225.38 L 200.06 226.75 L 200.19 227.75 L 200.38 228.38 L 200.62 228.62 L 200.81 229.06 L 200.94 229.69 L 201 230.5 L 201 231.5 L 200.94 232.31 L 200.81 232.94 L 200.62 233.38 L 200.38 233.62 L 199.38 233.81 L 197.62 233.94 L 195.12 234 L 191.88 234 L 189.38 233.94 L 187.62 233.81 L 186.62 233.62 L 186.38 233.38 L 186.31 231.94 L 186.44 229.31 L 186.75 225.5 L 187.25 220.5 L 187.94 216.5 L 188.81 213.5 L 189.88 211.5 L 191.12 210.5 L 192.25 209.81 L 193.25 209.44 Z
    M 193.88 169.38 L 195.12 169.62 L 196.38 170.19 L 197.62 171.06 L 198.88 172.25 L 200.12 173.75 L 201 175.19 L 201.5 176.56 L 201.62 177.88 L 201.38 179.12 L 200.81 180.38 L 199.94 181.62 L 198.75 182.88 L 197.25 184.12 L 195.81 185 L 194.44 185.5 L 193.12 185.62 L 191.88 185.38 L 190.62 184.81 L 189.38 183.94 L 188.12 182.75 L 186.88 181.25 L 186 179.81 L 185.5 178.44 L 185.38 177.12 L 185.62 175.88 L 186.19 174.62 L 187.06 173.38 L 188.25 172.12 L 189.75 170.88 L 191.19 170 L 192.56 169.5 Z
    M 215.88 167 L 217.12 167 L 218.19 167.06 L 219.06 167.19 L 219.75 167.38 L 220.25 167.62 L 220.88 168.12 L 221.62 168.88 L 222.5 169.88 L 223.5 171.12 L 224.25 172.31 L 224.75 173.44 L 225 174.5 L 225 175.5 L 224.69 176.62 L 224.06 177.88 L 223.12 179.25 L 221.88 180.75 L 220.56 181.88 L 219.19 182.62 L 217.75 183 L 216.25 183 L 215 182.94 L 214 182.81 L 213.25 182.62 L 212.75 182.38 L 212.19 181.94 L 211.56 181.31 L 210.88 180.5 L 210.12 179.5 L 209.56 178.38 L 209.19 177.12 L 209 175.75 L 209 174.25 L 209.06 173 L 209.19 172 L 209.38 171.25 L 209.62 170.75 L 210.06 170.19 L 210.69 169.56 L 211.5 168.88 L 212.5 168.12 L 213.56 167.56 L 214.69 167.19 Z
    M 171.25 161.38 L 172.75 161.62 L 174.12 162.12 L 175.38 162.88 L 176.5 163.88 L 177.5 165.12 L 178.25 166.31 L 178.75 167.44 L 179 168.5 L 179 169.5 L 178.69 170.62 L 178.06 171.88 L 177.12 173.25 L 175.88 174.75 L 174.56 175.88 L 173.19 176.62 L 171.75 177 L 170.25 177 L 169 176.94 L 168 176.81 L 167.25 176.62 L 166.75 176.38 L 166.19 175.94 L 165.56 175.31 L 164.88 174.5 L 164.12 173.5 L 163.56 172.38 L 163.19 171.12 L 163 169.75 L 163 168.25 L 163.38 166.81 L 164.12 165.44 L 165.25 164.12 L 166.75 162.88 L 168.25 162 L 169.75 161.5 Z
    M 234.5 151 L 235.5 151 L 236.62 151.31 L 237.88 151.94 L 239.25 152.88 L 240.75 154.12 L 241.88 155.44 L 242.62 156.81 L 243 158.25 L 243 159.75 L 242.94 161 L 242.81 162 L 242.62 162.75 L 242.38 163.25 L 241.94 163.81 L 241.31 164.44 L 240.5 165.12 L 239.5 165.88 L 238.38 166.44 L 237.12 166.81 L 235.75 167 L 234.25 167 L 233 166.94 L 232 166.81 L 231.25 166.62 L 230.75 166.38 L 230.19 165.94 L 229.56 165.31 L 228.88 164.5 L 228.12 163.5 L 227.56 162.38 L 227.19 161.12 L 227 159.75 L 227 158.25 L 227.38 156.81 L 228.12 155.44 L 229.25 154.12 L 230.75 152.88 L 232.12 151.94 L 233.38 151.31 Z
    M 157.75 143.5 L 158.25 142.5 L 159.44 141.75 L 161.31 141.25 L 163.88 141 L 167.12 141 L 169.69 141.19 L 171.56 141.56 L 172.75 142.12 L 173.25 142.88 L 173.62 143.62 L 173.88 144.38 L 174 145.12 L 174 145.88 L 173.75 146.81 L 173.25 147.94 L 172.5 149.25 L 171.5 150.75 L 170.62 151.94 L 169.88 152.81 L 169.25 153.38 L 168.75 153.62 L 168.06 153.81 L 167.19 153.94 L 166.12 154 L 164.88 154 L 163.69 153.81 L 162.56 153.44 L 161.5 152.88 L 160.5 152.12 L 159.62 151.19 L 158.88 150.06 L 158.25 148.75 L 157.75 147.25 L 157.5 145.88 L 157.5 144.62 Z
    M 235.5 127 L 236.5 127 L 237.5 127.12 L 238.5 127.38 L 239.5 127.75 L 240.5 128.25 L 241.44 128.94 L 242.31 129.81 L 243.12 130.88 L 243.88 132.12 L 244.38 133.38 L 244.62 134.62 L 244.62 135.88 L 244.38 137.12 L 243.94 138.31 L 243.31 139.44 L 242.5 140.5 L 241.5 141.5 L 240.31 142.25 L 238.94 142.75 L 237.38 143 L 235.62 143 L 234 142.62 L 232.5 141.88 L 231.12 140.75 L 229.88 139.25 L 228.94 137.94 L 228.31 136.81 L 228 135.88 L 228 135.12 L 228.12 134.31 L 228.38 133.44 L 228.75 132.5 L 229.25 131.5 L 229.88 130.56 L 230.62 129.69 L 231.5 128.88 L 232.5 128.12 L 233.5 127.56 L 234.5 127.19 Z
    M 146.88 121.75 L 148.12 120.25 L 149.25 119.06 L 150.25 118.19 L 151.12 117.62 L 151.88 117.38 L 154.06 117.19 L 157.69 117.06 L 162.75 117 L 169.25 117 L 174.5 117.31 L 178.5 117.94 L 181.25 118.88 L 182.75 120.12 L 183.94 121.38 L 184.81 122.62 L 185.38 123.88 L 185.62 125.12 L 185.75 126.19 L 185.75 127.06 L 185.62 127.75 L 185.38 128.25 L 184.81 128.94 L 183.94 129.81 L 182.75 130.88 L 181.25 132.12 L 178.44 133.06 L 174.31 133.69 L 168.88 134 L 162.12 134 L 156.69 133.69 L 152.56 133.06 L 149.75 132.12 L 148.25 130.88 L 147.06 129.62 L 146.19 128.38 L 145.62 127.12 L 145.38 125.88 L 145.5 124.56 L 146 123.19 Z
    M 241.25 103.75 L 242.75 104.25 L 244.06 104.88 L 245.19 105.62 L 246.12 106.5 L 246.88 107.5 L 247.44 108.56 L 247.81 109.69 L 248 110.88 L 248 112.12 L 247.75 113.38 L 247.25 114.62 L 246.5 115.88 L 245.5 117.12 L 244.56 118.12 L 243.69 118.88 L 242.88 119.38 L 242.12 119.62 L 241.25 119.75 L 240.25 119.75 L 239.12 119.62 L 237.88 119.38 L 236.69 118.94 L 235.56 118.31 L 234.5 117.5 L 233.5 116.5 L 232.69 115.56 L 232.06 114.69 L 231.62 113.88 L 231.38 113.12 L 231.25 112.31 L 231.25 111.44 L 231.38 110.5 L 231.62 109.5 L 232.06 108.5 L 232.69 107.5 L 233.5 106.5 L 234.5 105.5 L 235.44 104.69 L 236.31 104.06 L 237.12 103.62 L 237.88 103.38 L 238.81 103.31 L 239.94 103.44 Z
    M 153.38 99.25 L 153.62 98.75 L 154.19 98.06 L 155.06 97.19 L 156.25 96.12 L 157.75 94.88 L 160.56 93.94 L 164.69 93.31 L 170.12 93 L 176.88 93 L 182.31 93.31 L 186.44 93.94 L 189.25 94.88 L 190.75 96.12 L 191.94 97.31 L 192.81 98.44 L 193.38 99.5 L 193.62 100.5 L 193.75 101.44 L 193.75 102.31 L 193.62 103.12 L 193.38 103.88 L 192.94 104.69 L 192.31 105.56 L 191.5 106.5 L 190.5 107.5 L 189.56 108.31 L 188.69 108.94 L 187.88 109.38 L 187.12 109.62 L 184.94 109.81 L 181.31 109.94 L 176.25 110 L 169.75 110 L 164.5 109.69 L 160.5 109.06 L 157.75 108.12 L 156.25 106.88 L 155.06 105.62 L 154.19 104.38 L 153.62 103.12 L 153.38 101.88 L 153.25 100.81 L 153.25 99.94 Z
    M 240.25 79.38 L 241.75 79.62 L 243.12 80.12 L 244.38 80.88 L 245.5 81.88 L 246.5 83.12 L 247.25 84.38 L 247.75 85.62 L 248 86.88 L 248 88.12 L 247.75 89.38 L 247.25 90.62 L 246.5 91.88 L 245.5 93.12 L 244.56 94.12 L 243.69 94.88 L 242.88 95.38 L 242.12 95.62 L 241.25 95.75 L 240.25 95.75 L 239.12 95.62 L 237.88 95.38 L 236.62 94.81 L 235.38 93.94 L 234.12 92.75 L 232.88 91.25 L 232 89.81 L 231.5 88.44 L 231.38 87.12 L 231.62 85.88 L 232.19 84.62 L 233.06 83.38 L 234.25 82.12 L 235.75 80.88 L 237.25 80 L 238.75 79.5 Z
    M 161.38 75.25 L 161.62 74.75 L 162.19 74.06 L 163.06 73.19 L 164.25 72.12 L 165.75 70.88 L 168.56 69.94 L 172.69 69.31 L 178.12 69 L 184.88 69 L 190.31 69.31 L 194.44 69.94 L 197.25 70.88 L 198.75 72.12 L 199.94 73.31 L 200.81 74.44 L 201.38 75.5 L 201.62 76.5 L 201.75 77.44 L 201.75 78.31 L 201.62 79.12 L 201.38 79.88 L 200.94 80.69 L 200.31 81.56 L 199.5 82.5 L 198.5 83.5 L 197.56 84.31 L 196.69 84.94 L 195.88 85.38 L 195.12 85.62 L 192.94 85.81 L 189.31 85.94 L 184.25 86 L 177.75 86 L 172.5 85.69 L 168.5 85.06 L 165.75 84.12 L 164.25 82.88 L 163.06 81.62 L 162.19 80.38 L 161.62 79.12 L 161.38 77.88 L 161.25 76.81 L 161.25 75.94 Z
    M 241.25 56 L 242.75 56 L 244 56.06 L 245 56.19 L 245.75 56.38 L 246.25 56.62 L 246.81 57.06 L 247.44 57.69 L 248.12 58.5 L 248.88 59.5 L 249.44 60.62 L 249.81 61.88 L 250 63.25 L 250 64.75 L 249.62 66.19 L 248.88 67.56 L 247.75 68.88 L 246.25 70.12 L 244.75 71 L 243.25 71.5 L 241.75 71.62 L 240.25 71.38 L 238.88 70.88 L 237.62 70.12 L 236.5 69.12 L 235.5 67.88 L 234.75 66.62 L 234.25 65.38 L 234 64.12 L 234 62.88 L 234.12 61.75 L 234.38 60.75 L 234.75 59.88 L 235.25 59.12 L 235.81 58.44 L 236.44 57.81 L 237.12 57.25 L 237.88 56.75 L 238.81 56.38 L 239.94 56.12 Z
    M 219.12 52.5 L 219.88 53.5 L 220.81 54.44 L 221.94 55.31 L 223.25 56.12 L 224.75 56.88 L 225.81 57.94 L 226.44 59.31 L 226.62 61 L 226.38 63 L 226.25 64.56 L 226.25 65.69 L 226.38 66.38 L 226.62 66.62 L 226.81 67 L 226.94 67.5 L 227 68.12 L 227 68.88 L 227.19 69.69 L 227.56 70.56 L 228.12 71.5 L 228.88 72.5 L 229.12 73.62 L 228.88 74.88 L 228.12 76.25 L 226.88 77.75 L 225.81 79.31 L 224.94 80.94 L 224.25 82.62 L 223.75 84.38 L 223.44 86.06 L 223.31 87.69 L 223.38 89.25 L 223.62 90.75 L 224.12 92.31 L 224.88 93.94 L 225.88 95.62 L 227.12 97.38 L 227.81 99 L 227.94 100.5 L 227.5 101.88 L 226.5 103.12 L 225.69 104.25 L 225.06 105.25 L 224.62 106.12 L 224.38 106.88 L 224.19 107.88 L 224.06 109.12 L 224 110.62 L 224 112.38 L 224.12 114 L 224.38 115.5 L 224.75 116.88 L 225.25 118.12 L 225.75 119.19 L 226.25 120.06 L 226.75 120.75 L 227.25 121.25 L 227.38 121.88 L 227.12 122.62 L 226.5 123.5 L 225.5 124.5 L 224.56 125.75 L 223.69 127.25 L 222.88 129 L 222.12 131 L 221.62 132.94 L 221.38 134.81 L 221.38 136.62 L 221.62 138.38 L 222 139.94 L 222.5 141.31 L 223.12 142.5 L 223.88 143.5 L 224.44 144.38 L 224.81 145.12 L 225 145.75 L 225 146.25 L 224.75 146.88 L 224.25 147.62 L 223.5 148.5 L 222.5 149.5 L 221.56 150.75 L 220.69 152.25 L 219.88 154 L 219.12 156 L 218.12 157.56 L 216.88 158.69 L 215.38 159.38 L 213.62 159.62 L 211.88 160.12 L 210.12 160.88 L 208.38 161.88 L 206.62 163.12 L 204.94 163.88 L 203.31 164.12 L 201.75 163.88 L 200.25 163.12 L 198.56 162.56 L 196.69 162.19 L 194.62 162 L 192.38 162 L 190.5 162.06 L 189 162.19 L 187.88 162.38 L 187.12 162.62 L 186.44 162.62 L 185.81 162.38 L 185.25 161.88 L 184.75 161.12 L 184 160.25 L 183 159.25 L 181.75 158.12 L 180.25 156.88 L 179.31 155.62 L 178.94 154.38 L 179.12 153.12 L 179.88 151.88 L 180.44 150.44 L 180.81 148.81 L 181 147 L 181 145 L 181.5 143.19 L 182.5 141.56 L 184 140.12 L 186 138.88 L 187.75 137.5 L 189.25 136 L 190.5 134.38 L 191.5 132.62 L 192.25 130.75 L 192.75 128.75 L 193 126.62 L 193 124.38 L 192.88 122.44 L 192.62 120.81 L 192.25 119.5 L 191.75 118.5 L 191.88 117.31 L 192.62 115.94 L 194 114.38 L 196 112.62 L 197.62 111.06 L 198.88 109.69 L 199.75 108.5 L 200.25 107.5 L 200.62 106.19 L 200.88 104.56 L 201 102.62 L 201 100.38 L 200.88 98.44 L 200.62 96.81 L 200.25 95.5 L 199.75 94.5 L 199.88 93.31 L 200.62 91.94 L 202 90.38 L 204 88.62 L 205.62 87.06 L 206.88 85.69 L 207.75 84.5 L 208.25 83.5 L 208.62 82.19 L 208.88 80.56 L 209 78.62 L 209 76.38 L 208.88 74.44 L 208.62 72.81 L 208.25 71.5 L 207.75 70.5 L 207.88 69.31 L 208.62 67.94 L 210 66.38 L 212 64.62 L 213.62 63.06 L 214.88 61.69 L 215.75 60.5 L 216.25 59.5 L 216.62 58.38 L 216.88 57.12 L 217 55.75 L 217 54.25 L 217.06 53.06 L 217.19 52.19 L 217.38 51.62 L 217.62 51.38 L 218 51.44 L 218.5 51.81 Z
    M 169.38 51.25 L 169.62 50.75 L 170.19 50.06 L 171.06 49.19 L 172.25 48.12 L 173.75 46.88 L 176.56 45.94 L 180.69 45.31 L 186.12 45 L 192.88 45 L 198.31 45.31 L 202.44 45.94 L 205.25 46.88 L 206.75 48.12 L 207.94 49.31 L 208.81 50.44 L 209.38 51.5 L 209.62 52.5 L 209.75 53.44 L 209.75 54.31 L 209.62 55.12 L 209.38 55.88 L 208.81 56.75 L 207.94 57.75 L 206.75 58.88 L 205.25 60.12 L 202.44 61.06 L 198.31 61.69 L 192.88 62 L 186.12 62 L 180.69 61.69 L 176.56 61.06 L 173.75 60.12 L 172.25 58.88 L 171.06 57.62 L 170.19 56.38 L 169.62 55.12 L 169.38 53.88 L 169.25 52.81 L 169.25 51.94 Z
    M 228.88 34.62 L 230.12 34.38 L 231.25 34.25 L 232.25 34.25 L 233.12 34.38 L 233.88 34.62 L 234.69 35.06 L 235.56 35.69 L 236.5 36.5 L 237.5 37.5 L 238.25 38.69 L 238.75 40.06 L 239 41.62 L 239 43.38 L 238.75 44.94 L 238.25 46.31 L 237.5 47.5 L 236.5 48.5 L 235.56 49.25 L 234.69 49.75 L 233.88 50 L 233.12 50 L 232.5 50.06 L 232 50.19 L 231.62 50.38 L 231.38 50.62 L 230.88 50.69 L 230.12 50.56 L 229.12 50.25 L 227.88 49.75 L 226.75 49.12 L 225.75 48.38 L 224.88 47.5 L 224.12 46.5 L 223.56 45.44 L 223.19 44.31 L 223 43.12 L 223 41.88 L 223.25 40.62 L 223.75 39.38 L 224.5 38.12 L 225.5 36.88 L 226.56 35.88 L 227.69 35.12 Z
    M 210.5 23 L 211.5 23 L 212.56 23.31 L 213.69 23.94 L 214.88 24.88 L 216.12 26.12 L 217.06 27.44 L 217.69 28.81 L 218 30.25 L 218 31.75 L 217.69 33.19 L 217.06 34.56 L 216.12 35.88 L 214.88 37.12 L 213.56 38.06 L 212.19 38.69 L 210.75 39 L 209.25 39 L 207.81 38.69 L 206.44 38.06 L 205.12 37.12 L 203.88 35.88 L 203.38 34.25 L 203.62 32.25 L 204.62 29.88 L 206.38 27.12 L 207.94 25.06 L 209.31 23.69 Z
    M 184.38 17.62 L 184.62 17.38 L 185.75 17.19 L 187.75 17.06 L 190.62 17 L 194.38 17 L 197.25 17.06 L 199.25 17.19 L 200.38 17.38 L 200.62 17.62 L 200.81 18 L 200.94 18.5 L 201 19.12 L 201 19.88 L 200.94 20.5 L 200.81 21 L 200.62 21.38 L 200.38 21.62 L 199.75 21.81 L 198.75 21.94 L 197.38 22 L 195.62 22 L 194.25 21.94 L 193.25 21.81 L 192.62 21.62 L 192.38 21.38 L 192 21.19 L 191.5 21.06 L 190.88 21 L 190.12 21 L 189.25 20.81 L 188.25 20.44 L 187.12 19.88 L 185.88 19.12 L 185 18.5 L 184.5 18 Z" fill="currentColor" fill-rule="evenodd" clip-rule="evenodd"/>
</svg>
