<svg xmlns="http://www.w3.org/2000/svg" width="310" height="255" viewBox="0 0 310 255" role="img" aria-label="Hand holding prayer beads icon">
  <path d="M 70.0 49.0 L 67.0 54.0 L 67.0 60.0 L 63.0 62.0 L 59.0 66.0 L 58.0 69.0 L 59.0 79.0 L 56.0 82.0 L 55.0 85.0 L 55.0 90.0 L 58.0 95.0 L 55.0 98.0 L 54.0 101.0 L 54.0 107.0 L 57.0 112.0 L 59.0 113.0 L 58.0 115.0 L 58.0 123.0 L 59.0 125.0 L 66.0 131.0 L 66.0 137.0 L 68.0 141.0 L 72.0 144.0 L 77.0 145.0 L 79.0 150.0 L 84.0 155.0 L 90.0 156.0 L 92.0 158.0 L 92.0 160.0 L 96.0 164.0 L 98.0 165.0 L 105.0 165.0 L 110.0 172.0 L 112.0 173.0 L 119.0 173.0 L 125.0 180.0 L 127.0 181.0 L 134.0 181.0 L 141.0 187.0 L 149.0 187.0 L 153.0 192.0 L 157.0 194.0 L 165.0 193.0 L 167.0 195.0 L 167.0 198.0 L 166.0 199.0 L 162.0 218.0 L 160.0 222.0 L 160.0 226.0 L 162.0 228.0 L 188.0 228.0 L 191.0 226.0 L 191.0 222.0 L 189.0 218.0 L 187.0 207.0 L 185.0 203.0 L 184.0 194.0 L 186.0 191.0 L 189.0 192.0 L 196.0 191.0 L 201.0 186.0 L 201.0 184.0 L 204.0 181.0 L 210.0 180.0 L 213.0 177.0 L 215.0 172.0 L 214.0 165.0 L 211.0 161.0 L 214.0 157.0 L 214.0 150.0 L 213.0 148.0 L 209.0 144.0 L 203.0 142.0 L 201.0 136.0 L 197.0 132.0 L 191.0 131.0 L 190.0 128.0 L 211.0 117.0 L 217.0 115.0 L 221.0 115.0 L 222.0 114.0 L 229.0 114.0 L 235.0 118.0 L 260.0 117.0 L 263.0 115.0 L 262.0 88.0 L 261.0 87.0 L 261.0 74.0 L 260.0 73.0 L 260.0 60.0 L 259.0 59.0 L 259.0 46.0 L 258.0 43.0 L 256.0 42.0 L 233.0 43.0 L 228.0 45.0 L 223.0 51.0 L 214.0 51.0 L 194.0 44.0 L 182.0 38.0 L 173.0 32.0 L 165.0 31.0 L 149.0 38.0 L 135.0 42.0 L 122.0 48.0 L 120.0 48.0 L 114.0 41.0 L 111.0 40.0 L 105.0 40.0 L 100.0 43.0 L 96.0 40.0 L 88.0 40.0 L 86.0 41.0 L 81.0 47.0 L 77.0 46.0 Z
    M 123.0 56.0 L 129.0 52.0 L 134.0 51.0 L 150.0 44.0 L 158.0 42.0 L 166.0 38.0 L 169.0 38.0 L 184.0 47.0 L 197.0 53.0 L 210.0 57.0 L 222.0 58.0 L 224.0 60.0 L 224.0 73.0 L 225.0 74.0 L 225.0 87.0 L 226.0 88.0 L 227.0 106.0 L 226.0 107.0 L 216.0 108.0 L 209.0 110.0 L 186.0 122.0 L 183.0 120.0 L 179.0 120.0 L 177.0 118.0 L 177.0 115.0 L 172.0 110.0 L 168.0 108.0 L 168.0 103.0 L 166.0 99.0 L 162.0 96.0 L 163.0 94.0 L 163.0 88.0 L 161.0 84.0 L 157.0 81.0 L 158.0 73.0 L 154.0 67.0 L 156.0 66.0 L 161.0 73.0 L 169.0 81.0 L 178.0 86.0 L 184.0 88.0 L 188.0 88.0 L 189.0 89.0 L 197.0 89.0 L 199.0 86.0 L 198.0 83.0 L 185.0 81.0 L 173.0 75.0 L 167.0 69.0 L 164.0 64.0 L 158.0 59.0 L 152.0 59.0 L 144.0 63.0 L 134.0 64.0 L 128.0 62.0 Z
    M 81.0 69.0 L 85.0 67.0 L 89.0 62.0 L 96.0 62.0 L 100.0 59.0 L 104.0 62.0 L 103.0 64.0 L 88.0 72.0 L 83.0 79.0 L 84.0 89.0 L 88.0 93.0 L 83.0 98.0 L 81.0 103.0 L 81.0 106.0 L 83.0 112.0 L 86.0 115.0 L 90.0 117.0 L 96.0 117.0 L 97.0 118.0 L 97.0 121.0 L 100.0 126.0 L 107.0 130.0 L 112.0 130.0 L 113.0 131.0 L 113.0 134.0 L 116.0 139.0 L 122.0 142.0 L 129.0 142.0 L 136.0 140.0 L 142.0 140.0 L 143.0 139.0 L 149.0 139.0 L 156.0 137.0 L 168.0 136.0 L 173.0 141.0 L 179.0 142.0 L 181.0 148.0 L 184.0 151.0 L 190.0 153.0 L 192.0 155.0 L 192.0 158.0 L 195.0 162.0 L 193.0 165.0 L 193.0 167.0 L 191.0 169.0 L 188.0 169.0 L 184.0 171.0 L 180.0 175.0 L 178.0 174.0 L 173.0 174.0 L 169.0 176.0 L 165.0 172.0 L 155.0 171.0 L 154.0 169.0 L 150.0 166.0 L 141.0 165.0 L 140.0 163.0 L 135.0 159.0 L 132.0 159.0 L 131.0 158.0 L 128.0 159.0 L 122.0 152.0 L 120.0 151.0 L 114.0 151.0 L 108.0 144.0 L 101.0 143.0 L 96.0 135.0 L 89.0 133.0 L 85.0 125.0 L 80.0 122.0 L 80.0 115.0 L 75.0 109.0 L 76.0 107.0 L 76.0 100.0 L 74.0 96.0 L 78.0 89.0 L 78.0 86.0 L 76.0 81.0 L 81.0 74.0 Z
    M 250.0 49.0 L 252.0 51.0 L 256.0 109.0 L 255.0 110.0 L 248.0 110.0 L 247.0 111.0 L 236.0 111.0 L 234.0 108.0 L 234.0 98.0 L 233.0 97.0 L 233.0 85.0 L 232.0 84.0 L 232.0 73.0 L 231.0 72.0 L 230.0 53.0 L 232.0 51.0 L 235.0 51.0 L 236.0 50.0 L 248.0 50.0 Z
    M 132.0 83.0 L 133.0 86.0 L 128.0 92.0 L 111.0 101.0 L 97.0 110.0 L 92.0 110.0 L 89.0 108.0 L 88.0 104.0 L 91.0 100.0 L 116.0 86.0 L 121.0 82.0 L 125.0 80.0 L 129.0 80.0 Z
    M 135.0 102.0 L 136.0 107.0 L 132.0 111.0 L 127.0 113.0 L 111.0 123.0 L 108.0 123.0 L 104.0 119.0 L 104.0 115.0 L 107.0 112.0 L 127.0 100.0 L 133.0 100.0 Z
    M 113.0 75.0 L 112.0 79.0 L 98.0 88.0 L 93.0 88.0 L 90.0 85.0 L 91.0 79.0 L 100.0 73.0 L 106.0 70.0 L 109.0 70.0 Z
    M 143.0 99.0 L 147.0 102.0 L 146.0 103.0 L 146.0 110.0 L 147.0 112.0 L 151.0 116.0 L 155.0 118.0 L 156.0 126.0 L 159.0 129.0 L 156.0 131.0 L 151.0 131.0 L 150.0 132.0 L 145.0 132.0 L 144.0 131.0 L 146.0 128.0 L 146.0 121.0 L 144.0 117.0 L 140.0 113.0 L 143.0 108.0 L 143.0 102.0 L 142.0 101.0 Z
    M 136.0 119.0 L 139.0 122.0 L 139.0 127.0 L 131.0 133.0 L 127.0 135.0 L 123.0 135.0 L 119.0 130.0 L 120.0 127.0 L 131.0 119.0 Z
    M 174.0 200.0 L 176.0 200.0 L 178.0 202.0 L 178.0 205.0 L 183.0 220.0 L 182.0 221.0 L 169.0 221.0 L 168.0 220.0 L 170.0 211.0 L 172.0 207.0 L 172.0 204.0 Z
    M 111.0 63.0 L 115.0 60.0 L 117.0 60.0 L 120.0 65.0 L 129.0 70.0 L 133.0 70.0 L 135.0 71.0 L 136.0 73.0 L 134.0 75.0 L 130.0 73.0 L 120.0 74.0 L 118.0 69.0 Z
    M 174.0 181.0 L 178.0 182.0 L 180.0 185.0 L 179.0 186.0 L 179.0 189.0 L 176.0 193.0 L 173.0 192.0 L 171.0 187.0 L 171.0 184.0 Z
    M 178.0 126.0 L 181.0 127.0 L 183.0 130.0 L 183.0 132.0 L 180.0 135.0 L 177.0 135.0 L 174.0 132.0 L 175.0 128.0 Z
    M 158.0 178.0 L 161.0 178.0 L 164.0 181.0 L 163.0 185.0 L 160.0 187.0 L 157.0 186.0 L 155.0 183.0 Z
    M 146.0 71.0 L 148.0 71.0 L 151.0 74.0 L 151.0 77.0 L 147.0 80.0 L 144.0 79.0 L 142.0 76.0 L 143.0 73.0 Z
    M 187.0 178.0 L 189.0 176.0 L 192.0 176.0 L 195.0 179.0 L 195.0 182.0 L 190.0 185.0 L 187.0 183.0 Z
    M 69.0 67.0 L 72.0 68.0 L 74.0 72.0 L 73.0 74.0 L 70.0 76.0 L 68.0 76.0 L 65.0 73.0 L 65.0 70.0 Z
    M 65.0 83.0 L 68.0 83.0 L 71.0 87.0 L 67.0 92.0 L 62.0 89.0 L 62.0 86.0 Z
    M 98.0 152.0 L 100.0 150.0 L 104.0 150.0 L 106.0 152.0 L 106.0 156.0 L 104.0 158.0 L 100.0 158.0 L 98.0 156.0 Z
    M 73.0 131.0 L 75.0 129.0 L 78.0 129.0 L 81.0 132.0 L 81.0 135.0 L 76.0 138.0 L 73.0 135.0 Z
    M 187.0 140.0 L 189.0 138.0 L 193.0 138.0 L 195.0 140.0 L 195.0 144.0 L 192.0 146.0 L 189.0 146.0 L 187.0 144.0 Z
    M 65.0 117.0 L 67.0 115.0 L 71.0 115.0 L 73.0 118.0 L 73.0 121.0 L 71.0 123.0 L 67.0 123.0 L 65.0 121.0 Z
    M 88.0 49.0 L 90.0 47.0 L 94.0 47.0 L 96.0 49.0 L 96.0 53.0 L 94.0 55.0 L 91.0 55.0 L 88.0 53.0 Z
    M 126.0 169.0 L 129.0 166.0 L 133.0 166.0 L 135.0 169.0 L 135.0 171.0 L 132.0 174.0 L 129.0 174.0 Z
    M 65.0 99.0 L 69.0 102.0 L 69.0 106.0 L 67.0 108.0 L 64.0 108.0 L 61.0 105.0 L 61.0 102.0 Z
    M 150.0 87.0 L 153.0 87.0 L 156.0 90.0 L 156.0 92.0 L 154.0 95.0 L 150.0 95.0 L 147.0 92.0 Z
    M 73.0 58.0 L 76.0 54.0 L 80.0 54.0 L 82.0 56.0 L 82.0 59.0 L 79.0 62.0 L 76.0 62.0 Z
    M 104.0 50.0 L 107.0 47.0 L 110.0 47.0 L 113.0 52.0 L 110.0 55.0 L 106.0 55.0 L 104.0 52.0 Z
    M 202.0 149.0 L 204.0 149.0 L 207.0 152.0 L 207.0 155.0 L 204.0 158.0 L 202.0 158.0 L 199.0 155.0 L 199.0 152.0 Z
    M 144.0 172.0 L 146.0 172.0 L 149.0 174.0 L 149.0 178.0 L 145.0 181.0 L 141.0 178.0 L 141.0 175.0 Z
    M 163.0 117.0 L 164.0 116.0 L 168.0 116.0 L 171.0 120.0 L 168.0 124.0 L 165.0 124.0 L 162.0 121.0 Z
    M 88.0 140.0 L 90.0 140.0 L 93.0 143.0 L 93.0 146.0 L 90.0 149.0 L 85.0 146.0 L 85.0 143.0 Z
    M 156.0 102.0 L 158.0 102.0 L 161.0 105.0 L 161.0 108.0 L 157.0 111.0 L 153.0 108.0 L 153.0 105.0 Z
    M 115.0 158.0 L 118.0 158.0 L 120.0 160.0 L 120.0 164.0 L 118.0 166.0 L 114.0 166.0 L 112.0 163.0 L 112.0 161.0 Z
    M 199.0 170.0 L 202.0 166.0 L 205.0 166.0 L 208.0 169.0 L 208.0 171.0 L 205.0 174.0 L 202.0 174.0 Z
    M 139.0 91.0 L 141.0 94.0 L 140.0 97.0 L 137.0 94.0 Z" fill="#000000" fill-rule="evenodd"/>
</svg>
