<?xml version="1.0" encoding="UTF-8"?>
<svg xmlns="http://www.w3.org/2000/svg" width="736" height="771" viewBox="0 0 736 771">
  <path d="M 363 0 L 360 2 L 345 7 L 342 7 L 339 9 L 336 9 L 302 21 L 292 23 L 286 26 L 282 26 L 278 28 L 274 33 L 272 39 L 272 89 L 271 90 L 244 53 L 237 46 L 225 45 L 222 47 L 141 73 L 130 86 L 115 108 L 86 147 L 85 152 L 86 155 L 85 156 L 91 168 L 116 202 L 113 203 L 73 190 L 70 188 L 65 187 L 56 190 L 43 206 L 1 264 L 0 269 L 0 358 L 1 361 L 5 366 L 11 370 L 23 373 L 29 376 L 32 376 L 57 385 L 55 387 L 49 388 L 37 393 L 34 393 L 15 400 L 11 400 L 7 402 L 1 409 L 0 414 L 0 500 L 1 505 L 7 515 L 50 574 L 58 581 L 71 582 L 102 571 L 105 571 L 115 567 L 116 568 L 87 608 L 85 613 L 86 614 L 85 617 L 86 622 L 90 629 L 133 688 L 140 696 L 147 700 L 171 708 L 174 708 L 177 710 L 180 710 L 186 713 L 198 716 L 223 725 L 234 725 L 237 724 L 243 719 L 271 680 L 272 681 L 272 731 L 273 735 L 278 741 L 294 748 L 297 748 L 360 769 L 368 770 L 369 769 L 376 769 L 391 763 L 394 763 L 397 761 L 400 761 L 425 752 L 428 752 L 434 749 L 441 748 L 457 741 L 461 736 L 463 728 L 463 681 L 464 680 L 492 719 L 498 724 L 501 725 L 516 724 L 522 721 L 525 721 L 528 719 L 531 719 L 534 717 L 537 717 L 588 700 L 595 696 L 600 691 L 604 684 L 644 630 L 649 621 L 650 616 L 647 607 L 618 568 L 620 567 L 664 582 L 674 582 L 680 579 L 704 548 L 734 505 L 735 500 L 735 416 L 733 408 L 726 401 L 720 400 L 689 389 L 686 389 L 680 387 L 678 385 L 700 377 L 706 376 L 712 373 L 724 370 L 734 360 L 735 356 L 735 269 L 730 258 L 679 190 L 670 187 L 665 188 L 662 190 L 635 199 L 632 199 L 620 204 L 618 203 L 646 165 L 649 159 L 650 151 L 649 147 L 640 134 L 636 130 L 605 86 L 594 73 L 505 44 L 500 45 L 493 50 L 465 89 L 463 90 L 462 89 L 463 88 L 463 42 L 462 41 L 462 36 L 456 28 L 399 9 L 396 9 L 393 7 L 381 4 L 372 0 Z M 367 276 L 383 298 L 394 306 L 401 306 L 402 305 L 404 306 L 431 297 L 432 298 L 432 330 L 434 335 L 439 340 L 443 342 L 469 350 L 471 352 L 456 372 L 451 381 L 451 388 L 454 395 L 471 419 L 446 428 L 442 428 L 437 431 L 434 435 L 432 440 L 432 473 L 431 474 L 421 470 L 418 470 L 403 464 L 398 463 L 392 464 L 384 471 L 368 494 L 365 492 L 349 469 L 342 464 L 337 463 L 332 464 L 326 467 L 304 474 L 303 473 L 303 443 L 300 434 L 292 428 L 270 422 L 264 419 L 266 414 L 280 396 L 284 386 L 282 377 L 264 352 L 266 350 L 292 342 L 299 337 L 302 332 L 303 327 L 303 298 L 304 297 L 331 306 L 340 306 L 345 304 L 353 296 Z M 367 548 L 369 549 L 432 636 L 432 717 L 430 719 L 415 724 L 412 724 L 369 739 L 366 739 L 303 718 L 303 636 Z M 704 275 L 704 343 L 702 345 L 690 348 L 675 354 L 672 354 L 647 363 L 637 365 L 631 368 L 624 369 L 621 367 L 618 367 L 522 335 L 587 246 L 611 238 L 614 238 L 664 221 Z M 574 98 L 579 103 L 591 121 L 614 151 L 615 155 L 566 221 L 464 254 L 462 252 L 463 251 L 463 152 L 462 151 L 463 150 L 462 148 L 463 144 L 469 135 L 476 127 L 511 78 L 568 97 Z M 31 276 L 69 223 L 72 221 L 78 224 L 81 224 L 148 246 L 213 335 L 117 367 L 114 367 L 111 369 L 104 368 L 98 365 L 91 364 L 63 354 L 60 354 L 57 352 L 33 345 L 31 343 Z M 522 436 L 527 433 L 549 427 L 624 402 L 629 402 L 651 410 L 654 410 L 669 416 L 672 416 L 702 426 L 704 428 L 704 495 L 667 546 L 664 549 L 655 547 L 618 534 L 615 534 L 612 532 L 609 532 L 588 525 L 577 512 L 552 476 Z M 271 517 L 272 518 L 272 626 L 224 692 L 221 692 L 218 690 L 215 690 L 209 687 L 206 687 L 161 672 L 153 663 L 130 630 L 126 626 L 120 617 L 120 615 L 168 550 Z M 365 32 L 370 32 L 432 53 L 432 134 L 368 222 L 364 219 L 303 135 L 303 53 L 309 50 L 312 50 L 334 42 L 343 40 L 346 38 L 362 34 Z M 160 99 L 208 83 L 224 79 L 272 144 L 272 253 L 271 254 L 242 244 L 239 244 L 224 238 L 221 238 L 215 235 L 211 235 L 208 233 L 205 233 L 199 230 L 169 221 L 120 155 L 121 151 Z M 212 436 L 151 521 L 147 525 L 126 532 L 123 532 L 111 537 L 108 537 L 77 548 L 71 549 L 67 545 L 31 495 L 31 428 L 35 425 L 38 425 L 63 416 L 66 416 L 69 414 L 84 410 L 93 406 L 96 406 L 106 402 L 111 402 L 210 434 Z M 463 517 L 479 521 L 482 523 L 485 523 L 528 538 L 543 542 L 546 544 L 549 544 L 567 550 L 603 599 L 615 617 L 591 649 L 587 656 L 574 672 L 514 692 L 511 692 L 463 626 L 463 519 L 462 518 Z M 272 455 L 272 483 L 270 485 L 202 507 L 200 506 L 218 480 L 244 446 L 247 446 L 266 453 L 269 453 Z M 485 385 L 501 363 L 506 362 L 540 374 L 543 374 L 549 377 L 552 377 L 555 379 L 558 379 L 573 384 L 574 386 L 503 409 Z M 431 189 L 432 190 L 432 264 L 404 273 L 388 252 L 387 248 L 399 233 L 424 197 Z M 249 385 L 232 409 L 161 386 L 162 384 L 183 377 L 186 377 L 229 362 L 232 362 L 235 365 Z M 200 264 L 201 263 L 241 277 L 244 277 L 271 286 L 272 287 L 272 316 L 256 321 L 253 323 L 244 325 Z M 463 455 L 466 453 L 469 453 L 488 446 L 491 446 L 535 506 L 534 507 L 529 506 L 498 495 L 495 495 L 489 492 L 486 492 L 465 485 L 462 482 L 463 481 Z M 404 498 L 426 504 L 432 507 L 432 580 L 431 581 L 424 573 L 387 522 L 388 518 Z M 534 265 L 495 320 L 490 325 L 463 316 L 462 314 L 463 313 L 463 287 L 464 286 L 488 278 L 491 278 L 532 264 Z M 304 189 L 348 249 L 331 273 L 303 264 L 303 190 Z M 331 498 L 348 521 L 304 582 L 303 581 L 303 507 L 309 504 Z" fill="#000000" fill-rule="evenodd"/>
</svg>
